<svg xmlns="http://www.w3.org/2000/svg" xmlns:xlink="http://www.w3.org/1999/xlink" width="40" zoomAndPan="magnify" viewBox="0 0 30 30.000001" height="40" preserveAspectRatio="xMidYMid meet" version="1.0"><defs><g/><clipPath id="ed3de98384"><path d="M 0.484375 0 L 29.515625 0 L 29.515625 29.03125 L 0.484375 29.03125 Z M 0.484375 0 " clip-rule="nonzero"/></clipPath><clipPath id="08e26042eb"><path d="M 0.484375 4 L 10 4 L 10 19 L 0.484375 19 Z M 0.484375 4 " clip-rule="nonzero"/></clipPath><clipPath id="13e96e8531"><path d="M 0.898438 4.78125 L 11.578125 6.898438 L 9.175781 19.003906 L -1.503906 16.882812 Z M 0.898438 4.78125 " clip-rule="nonzero"/></clipPath><clipPath id="83397e4ada"><path d="M 0.898438 4.78125 L 11.578125 6.898438 L 9.175781 19.003906 L -1.503906 16.882812 Z M 0.898438 4.78125 " clip-rule="nonzero"/></clipPath><clipPath id="014e5ca53d"><path d="M 9 7 L 19 7 L 19 17 L 9 17 Z M 9 7 " clip-rule="nonzero"/></clipPath><clipPath id="b49501a09e"><path d="M 9.214844 8.128906 L 17.917969 7.859375 L 18.1875 16.5625 L 9.484375 16.835938 Z M 9.214844 8.128906 " clip-rule="nonzero"/></clipPath><clipPath id="e28f5962f5"><path d="M 9.214844 8.128906 L 17.917969 7.859375 L 18.1875 16.5625 L 9.484375 16.835938 Z M 9.214844 8.128906 " clip-rule="nonzero"/></clipPath><clipPath id="3eec35e77b"><path d="M 0.773438 1 L 4 1 L 4 5 L 0.773438 5 Z M 0.773438 1 " clip-rule="nonzero"/></clipPath><clipPath id="eaa85ea797"><path d="M 13 1 L 14.941406 1 L 14.941406 5 L 13 5 Z M 13 1 " clip-rule="nonzero"/></clipPath><clipPath id="d8662c7113"><rect x="0" width="15" y="0" height="6"/></clipPath><clipPath id="c17781acb6"><path d="M 1 0.277344 L 2 0.277344 L 2 2 L 1 2 Z M 1 0.277344 " clip-rule="nonzero"/></clipPath><clipPath id="183fbdeaf8"><path d="M 2 0.277344 L 4 0.277344 L 4 2 L 2 2 Z M 2 0.277344 " clip-rule="nonzero"/></clipPath><clipPath id="8d256d70b0"><path d="M 3 0.277344 L 5 0.277344 L 5 2 L 3 2 Z M 3 0.277344 " clip-rule="nonzero"/></clipPath><clipPath id="f8c0f06889"><path d="M 4 0.277344 L 5 0.277344 L 5 2 L 4 2 Z M 4 0.277344 " clip-rule="nonzero"/></clipPath><clipPath id="ff00a1ab53"><path d="M 5 0.277344 L 7 0.277344 L 7 2 L 5 2 Z M 5 0.277344 " clip-rule="nonzero"/></clipPath><clipPath id="b0db1a577f"><path d="M 6 0.277344 L 8 0.277344 L 8 2 L 6 2 Z M 6 0.277344 " clip-rule="nonzero"/></clipPath><clipPath id="5c12550eb8"><path d="M 8 0.277344 L 9 0.277344 L 9 2 L 8 2 Z M 8 0.277344 " clip-rule="nonzero"/></clipPath><clipPath id="f55c6e7ee2"><path d="M 9 0.277344 L 11 0.277344 L 11 2 L 9 2 Z M 9 0.277344 " clip-rule="nonzero"/></clipPath><clipPath id="25b99a4a89"><path d="M 10 0.277344 L 12 0.277344 L 12 2 L 10 2 Z M 10 0.277344 " clip-rule="nonzero"/></clipPath><clipPath id="70988020f3"><path d="M 11 0.277344 L 13 0.277344 L 13 2 L 11 2 Z M 11 0.277344 " clip-rule="nonzero"/></clipPath><clipPath id="ede91c98a4"><path d="M 12 0.277344 L 14 0.277344 L 14 2 L 12 2 Z M 12 0.277344 " clip-rule="nonzero"/></clipPath><clipPath id="b26e3918a4"><path d="M 13 0.277344 L 15 0.277344 L 15 2 L 13 2 Z M 13 0.277344 " clip-rule="nonzero"/></clipPath><clipPath id="444adb52e4"><path d="M 14 0.277344 L 16 0.277344 L 16 2 L 14 2 Z M 14 0.277344 " clip-rule="nonzero"/></clipPath><clipPath id="93b124ff22"><path d="M 15 0.277344 L 17 0.277344 L 17 2 L 15 2 Z M 15 0.277344 " clip-rule="nonzero"/></clipPath><clipPath id="a0ec7babd1"><path d="M 16 0.277344 L 18 0.277344 L 18 2 L 16 2 Z M 16 0.277344 " clip-rule="nonzero"/></clipPath><clipPath id="44a8c709f9"><path d="M 18 0.277344 L 20 0.277344 L 20 2 L 18 2 Z M 18 0.277344 " clip-rule="nonzero"/></clipPath><clipPath id="2812f1cefa"><path d="M 19 0.277344 L 21 0.277344 L 21 2 L 19 2 Z M 19 0.277344 " clip-rule="nonzero"/></clipPath><clipPath id="8dc4a2319b"><path d="M 20 0.277344 L 22 0.277344 L 22 2 L 20 2 Z M 20 0.277344 " clip-rule="nonzero"/></clipPath><clipPath id="ce8b619bbb"><rect x="0" width="23" y="0" height="4"/></clipPath></defs><g clip-path="url(#ed3de98384)"><path fill="#ffffff" d="M 0.484375 0 L 29.515625 0 L 29.515625 29.03125 L 0.484375 29.03125 Z M 0.484375 0 " fill-opacity="1" fill-rule="nonzero"/><path fill="#ffffff" d="M 0.484375 0 L 29.515625 0 L 29.515625 29.03125 L 0.484375 29.03125 Z M 0.484375 0 " fill-opacity="1" fill-rule="nonzero"/></g><g clip-path="url(#08e26042eb)"><g clip-path="url(#13e96e8531)"><g clip-path="url(#83397e4ada)"><path fill="#4bab13" d="M 8.574219 18.574219 C 8.410156 15.269531 8.574219 12.875 6.40625 10.316406 C 6.339844 10.238281 6.292969 10.183594 6.277344 10.175781 C 6.265625 10.195312 6.328125 10.277344 6.355469 10.332031 C 7.042969 11.371094 8.144531 13.394531 7.722656 14.609375 C 7.25 15.523438 5.71875 14.851562 5.109375 14.410156 C 3.359375 13.238281 2.589844 11.269531 2.242188 9.28125 C 2.007812 8.226562 1.875 7.167969 1.558594 6.125 C 1.464844 5.765625 1.21875 5.355469 0.992188 5 C 0.890625 4.808594 1.019531 4.804688 1.15625 4.847656 C 1.628906 5.003906 2.085938 5.148438 2.574219 5.292969 C 5.617188 6.054688 8.101562 7.921875 8.917969 11.039062 C 9.253906 12.167969 9.316406 13.460938 9.371094 14.929688 C 9.390625 15.941406 9.351562 17.292969 9.25 18.410156 C 9.234375 18.582031 9.238281 18.789062 9.035156 18.789062 C 8.890625 18.78125 8.675781 18.753906 8.589844 18.613281 Z M 8.574219 18.574219 " fill-opacity="1" fill-rule="nonzero"/></g></g></g><g clip-path="url(#014e5ca53d)"><g clip-path="url(#b49501a09e)"><g clip-path="url(#e28f5962f5)"><path fill="#4bab13" d="M 9.488281 16.9375 C 9.660156 15.308594 9.878906 13.824219 10.324219 12.316406 C 10.851562 10.199219 12.488281 8.515625 14.621094 8.132812 C 15.582031 7.933594 16.855469 8.007812 17.867188 7.945312 C 17.980469 7.945312 18.058594 7.933594 18.175781 7.933594 C 18.207031 7.933594 18.230469 7.941406 18.238281 7.953125 C 18.238281 8.027344 18.113281 8.097656 18.046875 8.164062 C 17.3125 8.863281 17.113281 9.542969 16.691406 10.386719 C 16.074219 11.761719 15.433594 12.917969 14.480469 13.652344 C 13.824219 14.234375 11.609375 15.246094 11.144531 14.035156 C 11.023438 13.183594 12.113281 11.839844 12.695312 11.230469 C 12.769531 11.148438 13.269531 10.640625 12.921875 10.914062 C 12.300781 11.40625 11.714844 12.085938 11.328125 12.75 C 10.871094 13.546875 10.5 14.761719 10.1875 16.429688 C 10.136719 16.742188 10.085938 17.164062 9.6875 17.105469 C 9.597656 17.109375 9.511719 17.046875 9.496094 16.984375 Z M 9.488281 16.9375 " fill-opacity="1" fill-rule="nonzero"/></g></g></g><g transform="matrix(1, 0, 0, 1, 9, 14)"><g clip-path="url(#d8662c7113)"><g clip-path="url(#3eec35e77b)"><g fill="#214001" fill-opacity="1"><g transform="translate(0.967866, 4.093531)"><g><path d="M 1.765625 -3.03125 L 2.984375 0 L 2.234375 0 L 2.015625 -0.609375 L 0.859375 -0.609375 L 0.640625 0 L -0.109375 0 L 1.125 -3.03125 Z M 1.78125 -1.21875 L 1.4375 -2.09375 L 1.09375 -1.21875 Z M 1.78125 -1.21875 "/></g></g></g></g><g fill="#214001" fill-opacity="1"><g transform="translate(3.763452, 4.093531)"><g><path d="M 0.21875 -3.03125 L 1.09375 -3.03125 C 1.519531 -3.03125 1.878906 -2.882812 2.171875 -2.59375 C 2.472656 -2.3125 2.625 -1.953125 2.625 -1.515625 C 2.625 -1.078125 2.472656 -0.710938 2.171875 -0.421875 C 1.878906 -0.140625 1.519531 0 1.09375 0 L 0.21875 0 Z M 0.90625 -0.609375 L 1.015625 -0.609375 C 1.265625 -0.609375 1.46875 -0.691406 1.625 -0.859375 C 1.789062 -1.035156 1.875 -1.253906 1.875 -1.515625 C 1.875 -1.765625 1.796875 -1.972656 1.640625 -2.140625 C 1.484375 -2.316406 1.273438 -2.40625 1.015625 -2.40625 L 0.90625 -2.40625 Z M 0.90625 -0.609375 "/></g></g></g><g fill="#214001" fill-opacity="1"><g transform="translate(6.390274, 4.093531)"><g><path d="M 0.90625 -3.03125 L 0.90625 0 L 0.21875 0 L 0.21875 -3.03125 Z M 0.90625 -3.03125 "/></g></g></g><g fill="#214001" fill-opacity="1"><g transform="translate(7.439527, 4.093531)"><g/></g></g><g fill="#214001" fill-opacity="1"><g transform="translate(8.360373, 4.093531)"><g><path d="M 1.765625 -3.03125 L 2.984375 0 L 2.234375 0 L 2.015625 -0.609375 L 0.859375 -0.609375 L 0.640625 0 L -0.109375 0 L 1.125 -3.03125 Z M 1.78125 -1.21875 L 1.4375 -2.09375 L 1.09375 -1.21875 Z M 1.78125 -1.21875 "/></g></g></g><g fill="#214001" fill-opacity="1"><g transform="translate(11.155958, 4.093531)"><g><path d="M 0.21875 -3.03125 L 1.296875 -3.03125 C 1.585938 -3.03125 1.828125 -2.953125 2.015625 -2.796875 C 2.203125 -2.640625 2.296875 -2.414062 2.296875 -2.125 C 2.296875 -1.90625 2.238281 -1.71875 2.125 -1.5625 C 2.007812 -1.414062 1.859375 -1.3125 1.671875 -1.25 L 2.71875 0 L 1.84375 0 L 0.90625 -1.203125 L 0.90625 0 L 0.21875 0 Z M 0.90625 -1.6875 L 0.984375 -1.6875 C 1.054688 -1.6875 1.113281 -1.6875 1.15625 -1.6875 C 1.195312 -1.6875 1.242188 -1.691406 1.296875 -1.703125 C 1.359375 -1.722656 1.40625 -1.742188 1.4375 -1.765625 C 1.46875 -1.796875 1.492188 -1.835938 1.515625 -1.890625 C 1.546875 -1.941406 1.5625 -2.003906 1.5625 -2.078125 C 1.5625 -2.148438 1.546875 -2.210938 1.515625 -2.265625 C 1.492188 -2.316406 1.46875 -2.351562 1.4375 -2.375 C 1.40625 -2.40625 1.359375 -2.425781 1.296875 -2.4375 C 1.242188 -2.457031 1.195312 -2.46875 1.15625 -2.46875 C 1.113281 -2.476562 1.054688 -2.484375 0.984375 -2.484375 L 0.90625 -2.484375 Z M 0.90625 -1.6875 "/></g></g></g><g clip-path="url(#eaa85ea797)"><g fill="#214001" fill-opacity="1"><g transform="translate(13.702068, 4.093531)"><g><path d="M 0.90625 -3.03125 L 0.90625 0 L 0.21875 0 L 0.21875 -3.03125 Z M 0.90625 -3.03125 "/></g></g></g></g></g></g><g transform="matrix(1, 0, 0, 1, 4, 19)"><g clip-path="url(#ce8b619bbb)"><g clip-path="url(#c17781acb6)"><g fill="#3d3d3d" fill-opacity="1"><g transform="translate(0.963105, 1.497619)"><g><path d="M 0.875 -0.75 L 0.859375 -0.75 C 0.847656 -0.800781 0.828125 -0.835938 0.796875 -0.859375 C 0.765625 -0.890625 0.710938 -0.90625 0.640625 -0.90625 L 0.34375 -0.90625 L 0.34375 -0.53125 L 0.578125 -0.53125 C 0.628906 -0.53125 0.664062 -0.535156 0.6875 -0.546875 C 0.707031 -0.566406 0.71875 -0.597656 0.71875 -0.640625 L 0.71875 -0.671875 L 0.734375 -0.671875 L 0.734375 -0.34375 L 0.71875 -0.34375 L 0.71875 -0.359375 C 0.71875 -0.398438 0.707031 -0.425781 0.6875 -0.4375 C 0.664062 -0.457031 0.632812 -0.46875 0.59375 -0.46875 L 0.34375 -0.46875 L 0.34375 -0.140625 C 0.34375 -0.0976562 0.351562 -0.0664062 0.375 -0.046875 C 0.394531 -0.0351562 0.429688 -0.03125 0.484375 -0.03125 L 0.484375 0 L 0.0625 0 L 0.0625 -0.03125 C 0.101562 -0.03125 0.132812 -0.0351562 0.15625 -0.046875 C 0.175781 -0.0664062 0.1875 -0.0976562 0.1875 -0.140625 L 0.1875 -0.828125 C 0.1875 -0.859375 0.175781 -0.882812 0.15625 -0.90625 C 0.132812 -0.925781 0.101562 -0.9375 0.0625 -0.9375 L 0.0625 -0.953125 L 0.875 -0.953125 Z M 0.875 -0.75 "/></g></g></g></g><g clip-path="url(#183fbdeaf8)"><g fill="#3d3d3d" fill-opacity="1"><g transform="translate(2.01392, 1.497619)"><g><path d="M 0.828125 -0.703125 C 0.828125 -0.648438 0.804688 -0.601562 0.765625 -0.5625 C 0.722656 -0.519531 0.660156 -0.488281 0.578125 -0.46875 L 0.796875 -0.1875 C 0.828125 -0.15625 0.847656 -0.128906 0.859375 -0.109375 C 0.878906 -0.0859375 0.90625 -0.0664062 0.9375 -0.046875 C 0.96875 -0.0351562 1 -0.03125 1.03125 -0.03125 L 1.03125 0 L 0.78125 0 L 0.421875 -0.453125 L 0.328125 -0.453125 L 0.328125 -0.140625 C 0.328125 -0.0976562 0.335938 -0.0664062 0.359375 -0.046875 C 0.378906 -0.0351562 0.410156 -0.03125 0.453125 -0.03125 L 0.46875 -0.03125 L 0.46875 0 L 0.046875 0 L 0.046875 -0.03125 C 0.0859375 -0.03125 0.117188 -0.0351562 0.140625 -0.046875 C 0.160156 -0.0664062 0.171875 -0.0976562 0.171875 -0.140625 L 0.171875 -0.828125 C 0.171875 -0.859375 0.160156 -0.882812 0.140625 -0.90625 C 0.117188 -0.925781 0.0859375 -0.9375 0.046875 -0.9375 L 0.046875 -0.953125 L 0.5 -0.953125 C 0.582031 -0.953125 0.65625 -0.929688 0.71875 -0.890625 C 0.789062 -0.847656 0.828125 -0.785156 0.828125 -0.703125 Z M 0.328125 -0.875 L 0.328125 -0.5 L 0.359375 -0.5 C 0.453125 -0.5 0.523438 -0.515625 0.578125 -0.546875 C 0.628906 -0.585938 0.65625 -0.640625 0.65625 -0.703125 C 0.65625 -0.753906 0.632812 -0.800781 0.59375 -0.84375 C 0.5625 -0.882812 0.507812 -0.90625 0.4375 -0.90625 C 0.40625 -0.90625 0.367188 -0.894531 0.328125 -0.875 Z M 0.328125 -0.875 "/></g></g></g></g><g clip-path="url(#8d256d70b0)"><g fill="#3d3d3d" fill-opacity="1"><g transform="translate(3.209097, 1.497619)"><g><path d="M 0.8125 -0.75 L 0.796875 -0.75 C 0.785156 -0.800781 0.765625 -0.835938 0.734375 -0.859375 C 0.710938 -0.890625 0.679688 -0.90625 0.640625 -0.90625 L 0.34375 -0.90625 L 0.34375 -0.53125 L 0.578125 -0.53125 C 0.628906 -0.53125 0.660156 -0.539062 0.671875 -0.5625 C 0.691406 -0.582031 0.703125 -0.617188 0.703125 -0.671875 L 0.734375 -0.671875 L 0.734375 -0.328125 L 0.703125 -0.328125 C 0.703125 -0.378906 0.691406 -0.414062 0.671875 -0.4375 C 0.660156 -0.457031 0.628906 -0.46875 0.578125 -0.46875 L 0.34375 -0.46875 L 0.34375 -0.125 C 0.34375 -0.0820312 0.359375 -0.0625 0.390625 -0.0625 L 0.640625 -0.0625 C 0.691406 -0.0625 0.734375 -0.078125 0.765625 -0.109375 C 0.804688 -0.140625 0.84375 -0.179688 0.875 -0.234375 L 0.890625 -0.234375 L 0.8125 0 L 0.046875 0 L 0.046875 -0.03125 C 0.0976562 -0.03125 0.132812 -0.0351562 0.15625 -0.046875 C 0.175781 -0.0664062 0.1875 -0.0976562 0.1875 -0.140625 L 0.1875 -0.828125 C 0.1875 -0.859375 0.175781 -0.882812 0.15625 -0.90625 C 0.132812 -0.925781 0.0976562 -0.9375 0.046875 -0.9375 L 0.046875 -0.953125 L 0.8125 -0.953125 Z M 0.8125 -0.75 "/></g></g></g></g><g clip-path="url(#f8c0f06889)"><g fill="#3d3d3d" fill-opacity="1"><g transform="translate(4.259912, 1.497619)"><g><path d="M 0.34375 -0.96875 C 0.375 -0.96875 0.398438 -0.960938 0.421875 -0.953125 C 0.453125 -0.953125 0.476562 -0.945312 0.5 -0.9375 C 0.507812 -0.9375 0.519531 -0.929688 0.53125 -0.921875 C 0.550781 -0.921875 0.5625 -0.921875 0.5625 -0.921875 C 0.59375 -0.921875 0.613281 -0.9375 0.625 -0.96875 L 0.65625 -0.96875 L 0.65625 -0.65625 L 0.625 -0.65625 C 0.613281 -0.707031 0.597656 -0.753906 0.578125 -0.796875 C 0.554688 -0.835938 0.523438 -0.867188 0.484375 -0.890625 C 0.453125 -0.910156 0.414062 -0.921875 0.375 -0.921875 C 0.320312 -0.921875 0.28125 -0.90625 0.25 -0.875 C 0.21875 -0.851562 0.203125 -0.820312 0.203125 -0.78125 C 0.203125 -0.738281 0.222656 -0.703125 0.265625 -0.671875 C 0.296875 -0.640625 0.34375 -0.609375 0.40625 -0.578125 C 0.457031 -0.546875 0.5 -0.519531 0.53125 -0.5 C 0.5625 -0.476562 0.59375 -0.457031 0.625 -0.4375 C 0.644531 -0.40625 0.660156 -0.375 0.671875 -0.34375 C 0.691406 -0.3125 0.703125 -0.28125 0.703125 -0.25 C 0.703125 -0.195312 0.6875 -0.148438 0.65625 -0.109375 C 0.632812 -0.0664062 0.601562 -0.0351562 0.5625 -0.015625 C 0.519531 0.00390625 0.46875 0.015625 0.40625 0.015625 C 0.375 0.015625 0.34375 0.0078125 0.3125 0 C 0.289062 0 0.265625 -0.00390625 0.234375 -0.015625 C 0.203125 -0.0234375 0.179688 -0.03125 0.171875 -0.03125 C 0.140625 -0.03125 0.117188 -0.015625 0.109375 0.015625 L 0.09375 0.015625 L 0.09375 -0.296875 L 0.109375 -0.296875 C 0.128906 -0.210938 0.160156 -0.144531 0.203125 -0.09375 C 0.253906 -0.0507812 0.316406 -0.03125 0.390625 -0.03125 C 0.441406 -0.03125 0.484375 -0.046875 0.515625 -0.078125 C 0.546875 -0.109375 0.5625 -0.144531 0.5625 -0.1875 C 0.5625 -0.207031 0.554688 -0.222656 0.546875 -0.234375 C 0.546875 -0.253906 0.535156 -0.273438 0.515625 -0.296875 C 0.492188 -0.316406 0.46875 -0.335938 0.4375 -0.359375 C 0.40625 -0.378906 0.363281 -0.410156 0.3125 -0.453125 C 0.257812 -0.472656 0.222656 -0.488281 0.203125 -0.5 C 0.179688 -0.519531 0.164062 -0.539062 0.15625 -0.5625 C 0.101562 -0.601562 0.078125 -0.660156 0.078125 -0.734375 C 0.078125 -0.773438 0.0859375 -0.8125 0.109375 -0.84375 C 0.140625 -0.882812 0.175781 -0.914062 0.21875 -0.9375 C 0.257812 -0.957031 0.300781 -0.96875 0.34375 -0.96875 Z M 0.34375 -0.96875 "/></g></g></g></g><g clip-path="url(#ff00a1ab53)"><g fill="#3d3d3d" fill-opacity="1"><g transform="translate(5.151095, 1.497619)"><g><path d="M 0.484375 -0.9375 L 0.46875 -0.9375 C 0.425781 -0.9375 0.394531 -0.925781 0.375 -0.90625 C 0.351562 -0.882812 0.34375 -0.851562 0.34375 -0.8125 L 0.34375 -0.53125 L 0.8125 -0.53125 L 0.8125 -0.8125 C 0.8125 -0.851562 0.800781 -0.882812 0.78125 -0.90625 C 0.757812 -0.925781 0.722656 -0.9375 0.671875 -0.9375 L 0.671875 -0.953125 L 1.09375 -0.953125 L 1.09375 -0.9375 C 1.039062 -0.9375 1.003906 -0.925781 0.984375 -0.90625 C 0.960938 -0.894531 0.953125 -0.863281 0.953125 -0.8125 L 0.953125 -0.140625 C 0.953125 -0.0976562 0.960938 -0.0664062 0.984375 -0.046875 C 1.003906 -0.0351562 1.039062 -0.03125 1.09375 -0.03125 L 1.09375 0 L 0.671875 0 L 0.671875 -0.03125 C 0.710938 -0.03125 0.742188 -0.0351562 0.765625 -0.046875 C 0.796875 -0.0664062 0.8125 -0.0976562 0.8125 -0.140625 L 0.8125 -0.46875 L 0.34375 -0.46875 L 0.34375 -0.140625 C 0.34375 -0.0976562 0.351562 -0.0664062 0.375 -0.046875 C 0.394531 -0.0351562 0.429688 -0.03125 0.484375 -0.03125 L 0.484375 0 L 0.046875 0 L 0.046875 -0.03125 C 0.0976562 -0.03125 0.132812 -0.0351562 0.15625 -0.046875 C 0.175781 -0.0664062 0.1875 -0.0976562 0.1875 -0.140625 L 0.1875 -0.8125 C 0.1875 -0.851562 0.175781 -0.882812 0.15625 -0.90625 C 0.132812 -0.925781 0.101562 -0.9375 0.0625 -0.9375 L 0.046875 -0.9375 L 0.046875 -0.953125 L 0.484375 -0.953125 Z M 0.484375 -0.9375 "/></g></g></g></g><g fill="#3d3d3d" fill-opacity="1"><g transform="translate(6.418454, 1.497619)"><g/></g></g><g clip-path="url(#b0db1a577f)"><g fill="#3d3d3d" fill-opacity="1"><g transform="translate(6.890431, 1.497619)"><g><path d="M 0.421875 -0.9375 C 0.378906 -0.9375 0.347656 -0.929688 0.328125 -0.921875 C 0.316406 -0.910156 0.3125 -0.894531 0.3125 -0.875 C 0.3125 -0.851562 0.320312 -0.816406 0.34375 -0.765625 L 0.5625 -0.234375 L 0.78125 -0.796875 C 0.78125 -0.804688 0.78125 -0.816406 0.78125 -0.828125 C 0.789062 -0.835938 0.796875 -0.847656 0.796875 -0.859375 C 0.796875 -0.890625 0.785156 -0.90625 0.765625 -0.90625 C 0.742188 -0.914062 0.71875 -0.925781 0.6875 -0.9375 L 0.6875 -0.953125 L 0.984375 -0.953125 L 0.984375 -0.9375 C 0.953125 -0.925781 0.921875 -0.90625 0.890625 -0.875 C 0.867188 -0.84375 0.84375 -0.789062 0.8125 -0.71875 L 0.53125 0.015625 L 0.5 0.015625 L 0.1875 -0.78125 C 0.164062 -0.820312 0.148438 -0.851562 0.140625 -0.875 C 0.128906 -0.894531 0.113281 -0.90625 0.09375 -0.90625 C 0.0703125 -0.914062 0.046875 -0.925781 0.015625 -0.9375 L 0.015625 -0.953125 L 0.421875 -0.953125 Z M 0.421875 -0.9375 "/></g></g></g></g><g clip-path="url(#5c12550eb8)"><g fill="#3d3d3d" fill-opacity="1"><g transform="translate(8.013426, 1.497619)"><g><path d="M 0.8125 -0.75 L 0.796875 -0.75 C 0.785156 -0.800781 0.765625 -0.835938 0.734375 -0.859375 C 0.710938 -0.890625 0.679688 -0.90625 0.640625 -0.90625 L 0.34375 -0.90625 L 0.34375 -0.53125 L 0.578125 -0.53125 C 0.628906 -0.53125 0.660156 -0.539062 0.671875 -0.5625 C 0.691406 -0.582031 0.703125 -0.617188 0.703125 -0.671875 L 0.734375 -0.671875 L 0.734375 -0.328125 L 0.703125 -0.328125 C 0.703125 -0.378906 0.691406 -0.414062 0.671875 -0.4375 C 0.660156 -0.457031 0.628906 -0.46875 0.578125 -0.46875 L 0.34375 -0.46875 L 0.34375 -0.125 C 0.34375 -0.0820312 0.359375 -0.0625 0.390625 -0.0625 L 0.640625 -0.0625 C 0.691406 -0.0625 0.734375 -0.078125 0.765625 -0.109375 C 0.804688 -0.140625 0.84375 -0.179688 0.875 -0.234375 L 0.890625 -0.234375 L 0.8125 0 L 0.046875 0 L 0.046875 -0.03125 C 0.0976562 -0.03125 0.132812 -0.0351562 0.15625 -0.046875 C 0.175781 -0.0664062 0.1875 -0.0976562 0.1875 -0.140625 L 0.1875 -0.828125 C 0.1875 -0.859375 0.175781 -0.882812 0.15625 -0.90625 C 0.132812 -0.925781 0.0976562 -0.9375 0.046875 -0.9375 L 0.046875 -0.953125 L 0.8125 -0.953125 Z M 0.8125 -0.75 "/></g></g></g></g><g clip-path="url(#f55c6e7ee2)"><g fill="#3d3d3d" fill-opacity="1"><g transform="translate(9.064242, 1.497619)"><g><path d="M 0.609375 -0.96875 C 0.660156 -0.96875 0.703125 -0.960938 0.734375 -0.953125 C 0.773438 -0.953125 0.816406 -0.941406 0.859375 -0.921875 C 0.878906 -0.910156 0.894531 -0.90625 0.90625 -0.90625 C 0.914062 -0.90625 0.921875 -0.910156 0.921875 -0.921875 C 0.929688 -0.929688 0.941406 -0.945312 0.953125 -0.96875 L 0.96875 -0.96875 L 1 -0.671875 L 0.96875 -0.671875 C 0.957031 -0.722656 0.929688 -0.765625 0.890625 -0.796875 C 0.859375 -0.835938 0.816406 -0.867188 0.765625 -0.890625 C 0.722656 -0.910156 0.675781 -0.921875 0.625 -0.921875 C 0.550781 -0.921875 0.484375 -0.898438 0.421875 -0.859375 C 0.367188 -0.828125 0.320312 -0.78125 0.28125 -0.71875 C 0.25 -0.65625 0.234375 -0.578125 0.234375 -0.484375 C 0.234375 -0.390625 0.25 -0.304688 0.28125 -0.234375 C 0.320312 -0.171875 0.375 -0.117188 0.4375 -0.078125 C 0.5 -0.046875 0.566406 -0.03125 0.640625 -0.03125 C 0.679688 -0.03125 0.71875 -0.0351562 0.75 -0.046875 C 0.78125 -0.0546875 0.816406 -0.0703125 0.859375 -0.09375 L 0.859375 -0.375 C 0.859375 -0.414062 0.847656 -0.441406 0.828125 -0.453125 C 0.804688 -0.472656 0.769531 -0.484375 0.71875 -0.484375 L 0.71875 -0.515625 L 1.125 -0.515625 L 1.125 -0.484375 C 1.09375 -0.484375 1.066406 -0.476562 1.046875 -0.46875 C 1.035156 -0.46875 1.023438 -0.457031 1.015625 -0.4375 C 1.003906 -0.414062 1 -0.382812 1 -0.34375 L 1 -0.078125 C 0.9375 -0.046875 0.878906 -0.0195312 0.828125 0 C 0.773438 0.0078125 0.707031 0.015625 0.625 0.015625 C 0.507812 0.015625 0.40625 -0.00390625 0.3125 -0.046875 C 0.226562 -0.0976562 0.164062 -0.15625 0.125 -0.21875 C 0.0820312 -0.289062 0.0625 -0.367188 0.0625 -0.453125 C 0.0625 -0.546875 0.0820312 -0.628906 0.125 -0.703125 C 0.175781 -0.785156 0.242188 -0.847656 0.328125 -0.890625 C 0.410156 -0.941406 0.503906 -0.96875 0.609375 -0.96875 Z M 0.609375 -0.96875 "/></g></g></g></g><g clip-path="url(#25b99a4a89)"><g fill="#3d3d3d" fill-opacity="1"><g transform="translate(10.331601, 1.497619)"><g><path d="M 0.8125 -0.75 L 0.796875 -0.75 C 0.785156 -0.800781 0.765625 -0.835938 0.734375 -0.859375 C 0.710938 -0.890625 0.679688 -0.90625 0.640625 -0.90625 L 0.34375 -0.90625 L 0.34375 -0.53125 L 0.578125 -0.53125 C 0.628906 -0.53125 0.660156 -0.539062 0.671875 -0.5625 C 0.691406 -0.582031 0.703125 -0.617188 0.703125 -0.671875 L 0.734375 -0.671875 L 0.734375 -0.328125 L 0.703125 -0.328125 C 0.703125 -0.378906 0.691406 -0.414062 0.671875 -0.4375 C 0.660156 -0.457031 0.628906 -0.46875 0.578125 -0.46875 L 0.34375 -0.46875 L 0.34375 -0.125 C 0.34375 -0.0820312 0.359375 -0.0625 0.390625 -0.0625 L 0.640625 -0.0625 C 0.691406 -0.0625 0.734375 -0.078125 0.765625 -0.109375 C 0.804688 -0.140625 0.84375 -0.179688 0.875 -0.234375 L 0.890625 -0.234375 L 0.8125 0 L 0.046875 0 L 0.046875 -0.03125 C 0.0976562 -0.03125 0.132812 -0.0351562 0.15625 -0.046875 C 0.175781 -0.0664062 0.1875 -0.0976562 0.1875 -0.140625 L 0.1875 -0.828125 C 0.1875 -0.859375 0.175781 -0.882812 0.15625 -0.90625 C 0.132812 -0.925781 0.0976562 -0.9375 0.046875 -0.9375 L 0.046875 -0.953125 L 0.8125 -0.953125 Z M 0.8125 -0.75 "/></g></g></g></g><g clip-path="url(#70988020f3)"><g fill="#3d3d3d" fill-opacity="1"><g transform="translate(11.382416, 1.497619)"><g><path d="M 0.890625 -0.734375 L 0.859375 -0.734375 C 0.847656 -0.835938 0.796875 -0.890625 0.703125 -0.890625 L 0.53125 -0.890625 L 0.53125 -0.125 C 0.53125 -0.0820312 0.539062 -0.0546875 0.5625 -0.046875 C 0.59375 -0.0351562 0.628906 -0.03125 0.671875 -0.03125 L 0.671875 0 L 0.25 0 L 0.25 -0.03125 C 0.300781 -0.03125 0.335938 -0.0351562 0.359375 -0.046875 C 0.378906 -0.0664062 0.390625 -0.0976562 0.390625 -0.140625 L 0.390625 -0.890625 L 0.21875 -0.890625 C 0.175781 -0.890625 0.140625 -0.875 0.109375 -0.84375 C 0.078125 -0.820312 0.0625 -0.785156 0.0625 -0.734375 L 0.03125 -0.734375 L 0.046875 -0.953125 L 0.890625 -0.953125 Z M 0.890625 -0.734375 "/></g></g></g></g><g clip-path="url(#ede91c98a4)"><g fill="#3d3d3d" fill-opacity="1"><g transform="translate(12.433231, 1.497619)"><g><path d="M 0.15625 -0.1875 L 0.515625 -1 L 0.546875 -1 L 0.921875 -0.125 C 0.929688 -0.09375 0.941406 -0.0664062 0.953125 -0.046875 C 0.960938 -0.0351562 0.972656 -0.03125 0.984375 -0.03125 C 1.003906 -0.03125 1.023438 -0.03125 1.046875 -0.03125 L 1.046875 0 L 0.65625 0 L 0.65625 -0.03125 C 0.6875 -0.03125 0.710938 -0.0351562 0.734375 -0.046875 C 0.753906 -0.0546875 0.765625 -0.0703125 0.765625 -0.09375 C 0.765625 -0.113281 0.757812 -0.132812 0.75 -0.15625 L 0.671875 -0.328125 L 0.28125 -0.328125 L 0.203125 -0.140625 C 0.191406 -0.117188 0.1875 -0.101562 0.1875 -0.09375 C 0.1875 -0.0507812 0.222656 -0.03125 0.296875 -0.03125 L 0.296875 0 L 0.015625 0 L 0.015625 -0.03125 C 0.0351562 -0.03125 0.0507812 -0.0351562 0.0625 -0.046875 C 0.0820312 -0.0546875 0.0976562 -0.0703125 0.109375 -0.09375 C 0.117188 -0.113281 0.132812 -0.144531 0.15625 -0.1875 Z M 0.640625 -0.375 L 0.484375 -0.765625 L 0.3125 -0.375 Z M 0.640625 -0.375 "/></g></g></g></g><g clip-path="url(#b26e3918a4)"><g fill="#3d3d3d" fill-opacity="1"><g transform="translate(13.628408, 1.497619)"><g><path d="M 0.828125 -0.703125 C 0.828125 -0.648438 0.8125 -0.601562 0.78125 -0.5625 C 0.75 -0.53125 0.703125 -0.507812 0.640625 -0.5 L 0.640625 -0.484375 C 0.710938 -0.472656 0.765625 -0.445312 0.796875 -0.40625 C 0.835938 -0.363281 0.859375 -0.3125 0.859375 -0.25 C 0.859375 -0.207031 0.84375 -0.164062 0.8125 -0.125 C 0.789062 -0.0820312 0.753906 -0.0507812 0.703125 -0.03125 C 0.660156 -0.0078125 0.601562 0 0.53125 0 L 0.0625 0 L 0.0625 -0.03125 C 0.09375 -0.03125 0.117188 -0.03125 0.140625 -0.03125 C 0.160156 -0.0390625 0.175781 -0.0546875 0.1875 -0.078125 C 0.195312 -0.0976562 0.203125 -0.128906 0.203125 -0.171875 L 0.203125 -0.78125 C 0.203125 -0.820312 0.195312 -0.851562 0.1875 -0.875 C 0.175781 -0.894531 0.160156 -0.90625 0.140625 -0.90625 C 0.117188 -0.914062 0.09375 -0.925781 0.0625 -0.9375 L 0.0625 -0.953125 L 0.46875 -0.953125 C 0.519531 -0.953125 0.570312 -0.941406 0.625 -0.921875 C 0.6875 -0.910156 0.734375 -0.882812 0.765625 -0.84375 C 0.804688 -0.8125 0.828125 -0.765625 0.828125 -0.703125 Z M 0.34375 -0.90625 L 0.34375 -0.53125 C 0.394531 -0.519531 0.4375 -0.515625 0.46875 -0.515625 C 0.5 -0.515625 0.53125 -0.519531 0.5625 -0.53125 C 0.59375 -0.550781 0.613281 -0.578125 0.625 -0.609375 C 0.644531 -0.640625 0.65625 -0.671875 0.65625 -0.703125 C 0.65625 -0.765625 0.632812 -0.8125 0.59375 -0.84375 C 0.5625 -0.882812 0.507812 -0.90625 0.4375 -0.90625 C 0.40625 -0.90625 0.375 -0.90625 0.34375 -0.90625 Z M 0.34375 -0.46875 L 0.34375 -0.0625 C 0.382812 -0.0507812 0.425781 -0.046875 0.46875 -0.046875 C 0.53125 -0.046875 0.582031 -0.0625 0.625 -0.09375 C 0.664062 -0.132812 0.6875 -0.1875 0.6875 -0.25 C 0.6875 -0.3125 0.660156 -0.363281 0.609375 -0.40625 C 0.566406 -0.445312 0.5 -0.46875 0.40625 -0.46875 C 0.394531 -0.46875 0.375 -0.46875 0.34375 -0.46875 Z M 0.34375 -0.46875 "/></g></g></g></g><g clip-path="url(#444adb52e4)"><g fill="#3d3d3d" fill-opacity="1"><g transform="translate(14.679223, 1.497619)"><g><path d="M 0.484375 -0.9375 C 0.441406 -0.9375 0.410156 -0.925781 0.390625 -0.90625 C 0.367188 -0.894531 0.359375 -0.863281 0.359375 -0.8125 L 0.359375 -0.109375 C 0.359375 -0.0976562 0.359375 -0.0859375 0.359375 -0.078125 C 0.367188 -0.0664062 0.382812 -0.0625 0.40625 -0.0625 L 0.609375 -0.0625 C 0.660156 -0.0625 0.703125 -0.0664062 0.734375 -0.078125 C 0.765625 -0.0859375 0.789062 -0.109375 0.8125 -0.140625 C 0.832031 -0.171875 0.851562 -0.210938 0.875 -0.265625 L 0.90625 -0.25 L 0.828125 0 L 0.0625 0 L 0.0625 -0.03125 C 0.113281 -0.03125 0.148438 -0.0351562 0.171875 -0.046875 C 0.191406 -0.0664062 0.203125 -0.0976562 0.203125 -0.140625 L 0.203125 -0.8125 C 0.203125 -0.851562 0.191406 -0.882812 0.171875 -0.90625 C 0.148438 -0.925781 0.113281 -0.9375 0.0625 -0.9375 L 0.0625 -0.953125 L 0.484375 -0.953125 Z M 0.484375 -0.9375 "/></g></g></g></g><g clip-path="url(#93b124ff22)"><g fill="#3d3d3d" fill-opacity="1"><g transform="translate(15.730039, 1.497619)"><g><path d="M 0.8125 -0.75 L 0.796875 -0.75 C 0.785156 -0.800781 0.765625 -0.835938 0.734375 -0.859375 C 0.710938 -0.890625 0.679688 -0.90625 0.640625 -0.90625 L 0.34375 -0.90625 L 0.34375 -0.53125 L 0.578125 -0.53125 C 0.628906 -0.53125 0.660156 -0.539062 0.671875 -0.5625 C 0.691406 -0.582031 0.703125 -0.617188 0.703125 -0.671875 L 0.734375 -0.671875 L 0.734375 -0.328125 L 0.703125 -0.328125 C 0.703125 -0.378906 0.691406 -0.414062 0.671875 -0.4375 C 0.660156 -0.457031 0.628906 -0.46875 0.578125 -0.46875 L 0.34375 -0.46875 L 0.34375 -0.125 C 0.34375 -0.0820312 0.359375 -0.0625 0.390625 -0.0625 L 0.640625 -0.0625 C 0.691406 -0.0625 0.734375 -0.078125 0.765625 -0.109375 C 0.804688 -0.140625 0.84375 -0.179688 0.875 -0.234375 L 0.890625 -0.234375 L 0.8125 0 L 0.046875 0 L 0.046875 -0.03125 C 0.0976562 -0.03125 0.132812 -0.0351562 0.15625 -0.046875 C 0.175781 -0.0664062 0.1875 -0.0976562 0.1875 -0.140625 L 0.1875 -0.828125 C 0.1875 -0.859375 0.175781 -0.882812 0.15625 -0.90625 C 0.132812 -0.925781 0.0976562 -0.9375 0.046875 -0.9375 L 0.046875 -0.953125 L 0.8125 -0.953125 Z M 0.8125 -0.75 "/></g></g></g></g><g clip-path="url(#a0ec7babd1)"><g fill="#3d3d3d" fill-opacity="1"><g transform="translate(16.780855, 1.497619)"><g><path d="M 0.34375 -0.96875 C 0.375 -0.96875 0.398438 -0.960938 0.421875 -0.953125 C 0.453125 -0.953125 0.476562 -0.945312 0.5 -0.9375 C 0.507812 -0.9375 0.519531 -0.929688 0.53125 -0.921875 C 0.550781 -0.921875 0.5625 -0.921875 0.5625 -0.921875 C 0.59375 -0.921875 0.613281 -0.9375 0.625 -0.96875 L 0.65625 -0.96875 L 0.65625 -0.65625 L 0.625 -0.65625 C 0.613281 -0.707031 0.597656 -0.753906 0.578125 -0.796875 C 0.554688 -0.835938 0.523438 -0.867188 0.484375 -0.890625 C 0.453125 -0.910156 0.414062 -0.921875 0.375 -0.921875 C 0.320312 -0.921875 0.28125 -0.90625 0.25 -0.875 C 0.21875 -0.851562 0.203125 -0.820312 0.203125 -0.78125 C 0.203125 -0.738281 0.222656 -0.703125 0.265625 -0.671875 C 0.296875 -0.640625 0.34375 -0.609375 0.40625 -0.578125 C 0.457031 -0.546875 0.5 -0.519531 0.53125 -0.5 C 0.5625 -0.476562 0.59375 -0.457031 0.625 -0.4375 C 0.644531 -0.40625 0.660156 -0.375 0.671875 -0.34375 C 0.691406 -0.3125 0.703125 -0.28125 0.703125 -0.25 C 0.703125 -0.195312 0.6875 -0.148438 0.65625 -0.109375 C 0.632812 -0.0664062 0.601562 -0.0351562 0.5625 -0.015625 C 0.519531 0.00390625 0.46875 0.015625 0.40625 0.015625 C 0.375 0.015625 0.34375 0.0078125 0.3125 0 C 0.289062 0 0.265625 -0.00390625 0.234375 -0.015625 C 0.203125 -0.0234375 0.179688 -0.03125 0.171875 -0.03125 C 0.140625 -0.03125 0.117188 -0.015625 0.109375 0.015625 L 0.09375 0.015625 L 0.09375 -0.296875 L 0.109375 -0.296875 C 0.128906 -0.210938 0.160156 -0.144531 0.203125 -0.09375 C 0.253906 -0.0507812 0.316406 -0.03125 0.390625 -0.03125 C 0.441406 -0.03125 0.484375 -0.046875 0.515625 -0.078125 C 0.546875 -0.109375 0.5625 -0.144531 0.5625 -0.1875 C 0.5625 -0.207031 0.554688 -0.222656 0.546875 -0.234375 C 0.546875 -0.253906 0.535156 -0.273438 0.515625 -0.296875 C 0.492188 -0.316406 0.46875 -0.335938 0.4375 -0.359375 C 0.40625 -0.378906 0.363281 -0.410156 0.3125 -0.453125 C 0.257812 -0.472656 0.222656 -0.488281 0.203125 -0.5 C 0.179688 -0.519531 0.164062 -0.539062 0.15625 -0.5625 C 0.101562 -0.601562 0.078125 -0.660156 0.078125 -0.734375 C 0.078125 -0.773438 0.0859375 -0.8125 0.109375 -0.84375 C 0.140625 -0.882812 0.175781 -0.914062 0.21875 -0.9375 C 0.257812 -0.957031 0.300781 -0.96875 0.34375 -0.96875 Z M 0.34375 -0.96875 "/></g></g></g></g><g fill="#3d3d3d" fill-opacity="1"><g transform="translate(17.672037, 1.497619)"><g/></g></g><g clip-path="url(#44a8c709f9)"><g fill="#3d3d3d" fill-opacity="1"><g transform="translate(18.144013, 1.497619)"><g><path d="M 0.15625 -0.1875 L 0.515625 -1 L 0.546875 -1 L 0.921875 -0.125 C 0.929688 -0.09375 0.941406 -0.0664062 0.953125 -0.046875 C 0.960938 -0.0351562 0.972656 -0.03125 0.984375 -0.03125 C 1.003906 -0.03125 1.023438 -0.03125 1.046875 -0.03125 L 1.046875 0 L 0.65625 0 L 0.65625 -0.03125 C 0.6875 -0.03125 0.710938 -0.0351562 0.734375 -0.046875 C 0.753906 -0.0546875 0.765625 -0.0703125 0.765625 -0.09375 C 0.765625 -0.113281 0.757812 -0.132812 0.75 -0.15625 L 0.671875 -0.328125 L 0.28125 -0.328125 L 0.203125 -0.140625 C 0.191406 -0.117188 0.1875 -0.101562 0.1875 -0.09375 C 0.1875 -0.0507812 0.222656 -0.03125 0.296875 -0.03125 L 0.296875 0 L 0.015625 0 L 0.015625 -0.03125 C 0.0351562 -0.03125 0.0507812 -0.0351562 0.0625 -0.046875 C 0.0820312 -0.0546875 0.0976562 -0.0703125 0.109375 -0.09375 C 0.117188 -0.113281 0.132812 -0.144531 0.15625 -0.1875 Z M 0.640625 -0.375 L 0.484375 -0.765625 L 0.3125 -0.375 Z M 0.640625 -0.375 "/></g></g></g></g><g clip-path="url(#2812f1cefa)"><g fill="#3d3d3d" fill-opacity="1"><g transform="translate(19.339191, 1.497619)"><g><path d="M 0.90625 -0.25 L 0.90625 -0.828125 C 0.90625 -0.867188 0.898438 -0.894531 0.890625 -0.90625 C 0.878906 -0.914062 0.851562 -0.925781 0.8125 -0.9375 L 0.78125 -0.9375 L 0.78125 -0.953125 L 1.125 -0.953125 L 1.125 -0.9375 L 1.09375 -0.9375 C 1.0625 -0.9375 1.035156 -0.929688 1.015625 -0.921875 C 1.003906 -0.921875 0.992188 -0.910156 0.984375 -0.890625 C 0.972656 -0.867188 0.96875 -0.84375 0.96875 -0.8125 L 0.96875 0.015625 L 0.953125 0.015625 L 0.28125 -0.765625 L 0.28125 -0.15625 C 0.28125 -0.101562 0.289062 -0.0664062 0.3125 -0.046875 C 0.332031 -0.0351562 0.363281 -0.03125 0.40625 -0.03125 L 0.40625 0 L 0.0625 0 L 0.0625 -0.03125 L 0.078125 -0.03125 C 0.117188 -0.03125 0.148438 -0.0351562 0.171875 -0.046875 C 0.203125 -0.0664062 0.21875 -0.0976562 0.21875 -0.140625 L 0.21875 -0.8125 C 0.1875 -0.851562 0.15625 -0.882812 0.125 -0.90625 C 0.09375 -0.925781 0.0546875 -0.9375 0.015625 -0.9375 L 0.015625 -0.953125 L 0.296875 -0.953125 Z M 0.90625 -0.25 "/></g></g></g></g><g clip-path="url(#8dc4a2319b)"><g fill="#3d3d3d" fill-opacity="1"><g transform="translate(20.606549, 1.497619)"><g><path d="M 1.09375 -0.484375 C 1.09375 -0.378906 1.066406 -0.289062 1.015625 -0.21875 C 0.960938 -0.15625 0.894531 -0.101562 0.8125 -0.0625 C 0.726562 -0.0195312 0.632812 0 0.53125 0 L 0.046875 0 L 0.046875 -0.03125 C 0.0976562 -0.03125 0.132812 -0.0351562 0.15625 -0.046875 C 0.175781 -0.0664062 0.1875 -0.0976562 0.1875 -0.140625 L 0.1875 -0.8125 C 0.1875 -0.863281 0.171875 -0.894531 0.140625 -0.90625 C 0.117188 -0.925781 0.0859375 -0.9375 0.046875 -0.9375 L 0.046875 -0.953125 L 0.578125 -0.953125 C 0.679688 -0.953125 0.769531 -0.925781 0.84375 -0.875 C 0.925781 -0.832031 0.988281 -0.773438 1.03125 -0.703125 C 1.070312 -0.628906 1.09375 -0.554688 1.09375 -0.484375 Z M 0.328125 -0.875 L 0.328125 -0.0625 C 0.378906 -0.0507812 0.429688 -0.046875 0.484375 -0.046875 C 0.566406 -0.046875 0.640625 -0.0625 0.703125 -0.09375 C 0.773438 -0.132812 0.828125 -0.1875 0.859375 -0.25 C 0.890625 -0.3125 0.90625 -0.382812 0.90625 -0.46875 C 0.90625 -0.550781 0.890625 -0.625 0.859375 -0.6875 C 0.828125 -0.757812 0.773438 -0.8125 0.703125 -0.84375 C 0.640625 -0.882812 0.566406 -0.90625 0.484375 -0.90625 C 0.429688 -0.90625 0.378906 -0.894531 0.328125 -0.875 Z M 0.328125 -0.875 "/></g></g></g></g><g fill="#3d3d3d" fill-opacity="1"><g transform="translate(5.948488, 2.9202)"><g><path d="M 0.484375 -0.9375 L 0.46875 -0.9375 C 0.425781 -0.9375 0.394531 -0.925781 0.375 -0.90625 C 0.351562 -0.882812 0.34375 -0.851562 0.34375 -0.8125 L 0.34375 -0.53125 L 0.8125 -0.53125 L 0.8125 -0.8125 C 0.8125 -0.851562 0.800781 -0.882812 0.78125 -0.90625 C 0.757812 -0.925781 0.722656 -0.9375 0.671875 -0.9375 L 0.671875 -0.953125 L 1.09375 -0.953125 L 1.09375 -0.9375 C 1.039062 -0.9375 1.003906 -0.925781 0.984375 -0.90625 C 0.960938 -0.894531 0.953125 -0.863281 0.953125 -0.8125 L 0.953125 -0.140625 C 0.953125 -0.0976562 0.960938 -0.0664062 0.984375 -0.046875 C 1.003906 -0.0351562 1.039062 -0.03125 1.09375 -0.03125 L 1.09375 0 L 0.671875 0 L 0.671875 -0.03125 C 0.710938 -0.03125 0.742188 -0.0351562 0.765625 -0.046875 C 0.796875 -0.0664062 0.8125 -0.0976562 0.8125 -0.140625 L 0.8125 -0.46875 L 0.34375 -0.46875 L 0.34375 -0.140625 C 0.34375 -0.0976562 0.351562 -0.0664062 0.375 -0.046875 C 0.394531 -0.0351562 0.429688 -0.03125 0.484375 -0.03125 L 0.484375 0 L 0.046875 0 L 0.046875 -0.03125 C 0.0976562 -0.03125 0.132812 -0.0351562 0.15625 -0.046875 C 0.175781 -0.0664062 0.1875 -0.0976562 0.1875 -0.140625 L 0.1875 -0.8125 C 0.1875 -0.851562 0.175781 -0.882812 0.15625 -0.90625 C 0.132812 -0.925781 0.101562 -0.9375 0.0625 -0.9375 L 0.046875 -0.9375 L 0.046875 -0.953125 L 0.484375 -0.953125 Z M 0.484375 -0.9375 "/></g></g></g><g fill="#3d3d3d" fill-opacity="1"><g transform="translate(7.215847, 2.9202)"><g><path d="M 0.15625 -0.1875 L 0.515625 -1 L 0.546875 -1 L 0.921875 -0.125 C 0.929688 -0.09375 0.941406 -0.0664062 0.953125 -0.046875 C 0.960938 -0.0351562 0.972656 -0.03125 0.984375 -0.03125 C 1.003906 -0.03125 1.023438 -0.03125 1.046875 -0.03125 L 1.046875 0 L 0.65625 0 L 0.65625 -0.03125 C 0.6875 -0.03125 0.710938 -0.0351562 0.734375 -0.046875 C 0.753906 -0.0546875 0.765625 -0.0703125 0.765625 -0.09375 C 0.765625 -0.113281 0.757812 -0.132812 0.75 -0.15625 L 0.671875 -0.328125 L 0.28125 -0.328125 L 0.203125 -0.140625 C 0.191406 -0.117188 0.1875 -0.101562 0.1875 -0.09375 C 0.1875 -0.0507812 0.222656 -0.03125 0.296875 -0.03125 L 0.296875 0 L 0.015625 0 L 0.015625 -0.03125 C 0.0351562 -0.03125 0.0507812 -0.0351562 0.0625 -0.046875 C 0.0820312 -0.0546875 0.0976562 -0.0703125 0.109375 -0.09375 C 0.117188 -0.113281 0.132812 -0.144531 0.15625 -0.1875 Z M 0.640625 -0.375 L 0.484375 -0.765625 L 0.3125 -0.375 Z M 0.640625 -0.375 "/></g></g></g><g fill="#3d3d3d" fill-opacity="1"><g transform="translate(8.411025, 2.9202)"><g><path d="M 0.484375 -0.9375 C 0.441406 -0.9375 0.410156 -0.925781 0.390625 -0.90625 C 0.367188 -0.894531 0.359375 -0.863281 0.359375 -0.8125 L 0.359375 -0.109375 C 0.359375 -0.0976562 0.359375 -0.0859375 0.359375 -0.078125 C 0.367188 -0.0664062 0.382812 -0.0625 0.40625 -0.0625 L 0.609375 -0.0625 C 0.660156 -0.0625 0.703125 -0.0664062 0.734375 -0.078125 C 0.765625 -0.0859375 0.789062 -0.109375 0.8125 -0.140625 C 0.832031 -0.171875 0.851562 -0.210938 0.875 -0.265625 L 0.90625 -0.25 L 0.828125 0 L 0.0625 0 L 0.0625 -0.03125 C 0.113281 -0.03125 0.148438 -0.0351562 0.171875 -0.046875 C 0.191406 -0.0664062 0.203125 -0.0976562 0.203125 -0.140625 L 0.203125 -0.8125 C 0.203125 -0.851562 0.191406 -0.882812 0.171875 -0.90625 C 0.148438 -0.925781 0.113281 -0.9375 0.0625 -0.9375 L 0.0625 -0.953125 L 0.484375 -0.953125 Z M 0.484375 -0.9375 "/></g></g></g><g fill="#3d3d3d" fill-opacity="1"><g transform="translate(9.46184, 2.9202)"><g><path d="M 0.15625 -0.1875 L 0.515625 -1 L 0.546875 -1 L 0.921875 -0.125 C 0.929688 -0.09375 0.941406 -0.0664062 0.953125 -0.046875 C 0.960938 -0.0351562 0.972656 -0.03125 0.984375 -0.03125 C 1.003906 -0.03125 1.023438 -0.03125 1.046875 -0.03125 L 1.046875 0 L 0.65625 0 L 0.65625 -0.03125 C 0.6875 -0.03125 0.710938 -0.0351562 0.734375 -0.046875 C 0.753906 -0.0546875 0.765625 -0.0703125 0.765625 -0.09375 C 0.765625 -0.113281 0.757812 -0.132812 0.75 -0.15625 L 0.671875 -0.328125 L 0.28125 -0.328125 L 0.203125 -0.140625 C 0.191406 -0.117188 0.1875 -0.101562 0.1875 -0.09375 C 0.1875 -0.0507812 0.222656 -0.03125 0.296875 -0.03125 L 0.296875 0 L 0.015625 0 L 0.015625 -0.03125 C 0.0351562 -0.03125 0.0507812 -0.0351562 0.0625 -0.046875 C 0.0820312 -0.0546875 0.0976562 -0.0703125 0.109375 -0.09375 C 0.117188 -0.113281 0.132812 -0.144531 0.15625 -0.1875 Z M 0.640625 -0.375 L 0.484375 -0.765625 L 0.3125 -0.375 Z M 0.640625 -0.375 "/></g></g></g><g fill="#3d3d3d" fill-opacity="1"><g transform="translate(10.657017, 2.9202)"><g><path d="M 0.484375 -0.9375 C 0.441406 -0.9375 0.410156 -0.925781 0.390625 -0.90625 C 0.367188 -0.894531 0.359375 -0.863281 0.359375 -0.8125 L 0.359375 -0.109375 C 0.359375 -0.0976562 0.359375 -0.0859375 0.359375 -0.078125 C 0.367188 -0.0664062 0.382812 -0.0625 0.40625 -0.0625 L 0.609375 -0.0625 C 0.660156 -0.0625 0.703125 -0.0664062 0.734375 -0.078125 C 0.765625 -0.0859375 0.789062 -0.109375 0.8125 -0.140625 C 0.832031 -0.171875 0.851562 -0.210938 0.875 -0.265625 L 0.90625 -0.25 L 0.828125 0 L 0.0625 0 L 0.0625 -0.03125 C 0.113281 -0.03125 0.148438 -0.0351562 0.171875 -0.046875 C 0.191406 -0.0664062 0.203125 -0.0976562 0.203125 -0.140625 L 0.203125 -0.8125 C 0.203125 -0.851562 0.191406 -0.882812 0.171875 -0.90625 C 0.148438 -0.925781 0.113281 -0.9375 0.0625 -0.9375 L 0.0625 -0.953125 L 0.484375 -0.953125 Z M 0.484375 -0.9375 "/></g></g></g><g fill="#3d3d3d" fill-opacity="1"><g transform="translate(11.707833, 2.9202)"><g/></g></g><g fill="#3d3d3d" fill-opacity="1"><g transform="translate(12.179808, 2.9202)"><g><path d="M 0.875 -0.75 L 0.859375 -0.75 C 0.847656 -0.800781 0.828125 -0.835938 0.796875 -0.859375 C 0.765625 -0.890625 0.710938 -0.90625 0.640625 -0.90625 L 0.34375 -0.90625 L 0.34375 -0.53125 L 0.578125 -0.53125 C 0.628906 -0.53125 0.664062 -0.535156 0.6875 -0.546875 C 0.707031 -0.566406 0.71875 -0.597656 0.71875 -0.640625 L 0.71875 -0.671875 L 0.734375 -0.671875 L 0.734375 -0.34375 L 0.71875 -0.34375 L 0.71875 -0.359375 C 0.71875 -0.398438 0.707031 -0.425781 0.6875 -0.4375 C 0.664062 -0.457031 0.632812 -0.46875 0.59375 -0.46875 L 0.34375 -0.46875 L 0.34375 -0.140625 C 0.34375 -0.0976562 0.351562 -0.0664062 0.375 -0.046875 C 0.394531 -0.0351562 0.429688 -0.03125 0.484375 -0.03125 L 0.484375 0 L 0.0625 0 L 0.0625 -0.03125 C 0.101562 -0.03125 0.132812 -0.0351562 0.15625 -0.046875 C 0.175781 -0.0664062 0.1875 -0.0976562 0.1875 -0.140625 L 0.1875 -0.828125 C 0.1875 -0.859375 0.175781 -0.882812 0.15625 -0.90625 C 0.132812 -0.925781 0.101562 -0.9375 0.0625 -0.9375 L 0.0625 -0.953125 L 0.875 -0.953125 Z M 0.875 -0.75 "/></g></g></g><g fill="#3d3d3d" fill-opacity="1"><g transform="translate(13.230623, 2.9202)"><g><path d="M 0.53125 -0.96875 C 0.625 -0.96875 0.707031 -0.945312 0.78125 -0.90625 C 0.851562 -0.863281 0.910156 -0.800781 0.953125 -0.71875 C 0.992188 -0.644531 1.015625 -0.566406 1.015625 -0.484375 C 1.015625 -0.390625 0.992188 -0.300781 0.953125 -0.21875 C 0.910156 -0.144531 0.851562 -0.0859375 0.78125 -0.046875 C 0.707031 -0.00390625 0.625 0.015625 0.53125 0.015625 C 0.445312 0.015625 0.367188 -0.00390625 0.296875 -0.046875 C 0.222656 -0.0859375 0.160156 -0.144531 0.109375 -0.21875 C 0.0664062 -0.300781 0.046875 -0.390625 0.046875 -0.484375 C 0.046875 -0.566406 0.0664062 -0.644531 0.109375 -0.71875 C 0.160156 -0.800781 0.222656 -0.863281 0.296875 -0.90625 C 0.367188 -0.945312 0.445312 -0.96875 0.53125 -0.96875 Z M 0.21875 -0.484375 C 0.21875 -0.390625 0.226562 -0.304688 0.25 -0.234375 C 0.28125 -0.171875 0.316406 -0.117188 0.359375 -0.078125 C 0.410156 -0.046875 0.46875 -0.03125 0.53125 -0.03125 C 0.59375 -0.03125 0.644531 -0.046875 0.6875 -0.078125 C 0.738281 -0.117188 0.773438 -0.171875 0.796875 -0.234375 C 0.828125 -0.304688 0.84375 -0.390625 0.84375 -0.484375 C 0.84375 -0.566406 0.828125 -0.640625 0.796875 -0.703125 C 0.773438 -0.773438 0.738281 -0.828125 0.6875 -0.859375 C 0.644531 -0.898438 0.59375 -0.921875 0.53125 -0.921875 C 0.46875 -0.921875 0.410156 -0.898438 0.359375 -0.859375 C 0.316406 -0.828125 0.28125 -0.773438 0.25 -0.703125 C 0.226562 -0.640625 0.21875 -0.566406 0.21875 -0.484375 Z M 0.21875 -0.484375 "/></g></g></g><g fill="#3d3d3d" fill-opacity="1"><g transform="translate(14.425801, 2.9202)"><g><path d="M 0.53125 -0.96875 C 0.625 -0.96875 0.707031 -0.945312 0.78125 -0.90625 C 0.851562 -0.863281 0.910156 -0.800781 0.953125 -0.71875 C 0.992188 -0.644531 1.015625 -0.566406 1.015625 -0.484375 C 1.015625 -0.390625 0.992188 -0.300781 0.953125 -0.21875 C 0.910156 -0.144531 0.851562 -0.0859375 0.78125 -0.046875 C 0.707031 -0.00390625 0.625 0.015625 0.53125 0.015625 C 0.445312 0.015625 0.367188 -0.00390625 0.296875 -0.046875 C 0.222656 -0.0859375 0.160156 -0.144531 0.109375 -0.21875 C 0.0664062 -0.300781 0.046875 -0.390625 0.046875 -0.484375 C 0.046875 -0.566406 0.0664062 -0.644531 0.109375 -0.71875 C 0.160156 -0.800781 0.222656 -0.863281 0.296875 -0.90625 C 0.367188 -0.945312 0.445312 -0.96875 0.53125 -0.96875 Z M 0.21875 -0.484375 C 0.21875 -0.390625 0.226562 -0.304688 0.25 -0.234375 C 0.28125 -0.171875 0.316406 -0.117188 0.359375 -0.078125 C 0.410156 -0.046875 0.46875 -0.03125 0.53125 -0.03125 C 0.59375 -0.03125 0.644531 -0.046875 0.6875 -0.078125 C 0.738281 -0.117188 0.773438 -0.171875 0.796875 -0.234375 C 0.828125 -0.304688 0.84375 -0.390625 0.84375 -0.484375 C 0.84375 -0.566406 0.828125 -0.640625 0.796875 -0.703125 C 0.773438 -0.773438 0.738281 -0.828125 0.6875 -0.859375 C 0.644531 -0.898438 0.59375 -0.921875 0.53125 -0.921875 C 0.46875 -0.921875 0.410156 -0.898438 0.359375 -0.859375 C 0.316406 -0.828125 0.28125 -0.773438 0.25 -0.703125 C 0.226562 -0.640625 0.21875 -0.566406 0.21875 -0.484375 Z M 0.21875 -0.484375 "/></g></g></g><g fill="#3d3d3d" fill-opacity="1"><g transform="translate(15.620978, 2.9202)"><g><path d="M 1.09375 -0.484375 C 1.09375 -0.378906 1.066406 -0.289062 1.015625 -0.21875 C 0.960938 -0.15625 0.894531 -0.101562 0.8125 -0.0625 C 0.726562 -0.0195312 0.632812 0 0.53125 0 L 0.046875 0 L 0.046875 -0.03125 C 0.0976562 -0.03125 0.132812 -0.0351562 0.15625 -0.046875 C 0.175781 -0.0664062 0.1875 -0.0976562 0.1875 -0.140625 L 0.1875 -0.8125 C 0.1875 -0.863281 0.171875 -0.894531 0.140625 -0.90625 C 0.117188 -0.925781 0.0859375 -0.9375 0.046875 -0.9375 L 0.046875 -0.953125 L 0.578125 -0.953125 C 0.679688 -0.953125 0.769531 -0.925781 0.84375 -0.875 C 0.925781 -0.832031 0.988281 -0.773438 1.03125 -0.703125 C 1.070312 -0.628906 1.09375 -0.554688 1.09375 -0.484375 Z M 0.328125 -0.875 L 0.328125 -0.0625 C 0.378906 -0.0507812 0.429688 -0.046875 0.484375 -0.046875 C 0.566406 -0.046875 0.640625 -0.0625 0.703125 -0.09375 C 0.773438 -0.132812 0.828125 -0.1875 0.859375 -0.25 C 0.890625 -0.3125 0.90625 -0.382812 0.90625 -0.46875 C 0.90625 -0.550781 0.890625 -0.625 0.859375 -0.6875 C 0.828125 -0.757812 0.773438 -0.8125 0.703125 -0.84375 C 0.640625 -0.882812 0.566406 -0.90625 0.484375 -0.90625 C 0.429688 -0.90625 0.378906 -0.894531 0.328125 -0.875 Z M 0.328125 -0.875 "/></g></g></g></g></g></svg>